<mxGraphModel><root><mxCell id="0"/><mxCell id="1" parent="0"/><mxCell id="2" value="" style="ellipse;fillColor=strokeColor;" vertex="1" parent="1"><mxGeometry x="115" y="8" width="14" height="14" as="geometry"/></mxCell><mxCell id="3" value="Start" style="rounded=1;absoluteArcSize=1;arcSize=14;whiteSpace=wrap;strokeWidth=2;" vertex="1" parent="1"><mxGeometry x="97" y="72" width="51" height="34" as="geometry"/></mxCell><mxCell id="4" value="Initialization" style="rounded=1;absoluteArcSize=1;arcSize=14;whiteSpace=wrap;strokeWidth=2;" vertex="1" parent="1"><mxGeometry x="69" y="156" width="106" height="34" as="geometry"/></mxCell><mxCell id="5" value="Ready" style="rounded=1;absoluteArcSize=1;arcSize=14;whiteSpace=wrap;strokeWidth=2;" vertex="1" parent="1"><mxGeometry x="93" y="240" width="59" height="34" as="geometry"/></mxCell><mxCell id="6" value="" style="ellipse;shape=endState;fillColor=strokeColor;" vertex="1" parent="1"><mxGeometry x="167" y="408" width="14" height="14" as="geometry"/></mxCell><mxCell id="7" value="Processing" style="rounded=1;absoluteArcSize=1;arcSize=14;whiteSpace=wrap;strokeWidth=2;" vertex="1" parent="1"><mxGeometry x="8" y="324" width="89" height="34" as="geometry"/></mxCell><mxCell id="8" value="Completion" style="rounded=1;absoluteArcSize=1;arcSize=14;whiteSpace=wrap;strokeWidth=2;" vertex="1" parent="1"><mxGeometry x="167" y="324" width="97" height="34" as="geometry"/></mxCell><mxCell id="9" value="" style="curved=1;startArrow=none;;exitX=0.49441964285714285;exitY=1;entryX=0.4886642156862745;entryY=0;" edge="1" parent="1" source="2" target="3"><mxGeometry relative="1" as="geometry"><Array as="points"/></mxGeometry></mxCell><mxCell id="10" value="" style="curved=1;startArrow=none;;exitX=0.4886642156862745;exitY=1;entryX=0.49926297169811323;entryY=0;" edge="1" parent="1" source="3" target="4"><mxGeometry relative="1" as="geometry"><Array as="points"/></mxGeometry></mxCell><mxCell id="11" value="" style="curved=1;startArrow=none;;exitX=0.49926297169811323;exitY=1;entryX=0.4902012711864407;entryY=0;" edge="1" parent="1" source="4" target="5"><mxGeometry relative="1" as="geometry"><Array as="points"/></mxGeometry></mxCell><mxCell id="12" value="" style="curved=1;startArrow=none;;exitX=0.55880498385795;exitY=1;entryX=-0.018275669642857144;entryY=0.11742866482977579;" edge="1" parent="1" source="5" target="6"><mxGeometry relative="1" as="geometry"><Array as="points"><mxPoint x="132" y="299"/><mxPoint x="132" y="383"/></Array></mxGeometry></mxCell><mxCell id="13" value="" style="curved=1;startArrow=none;;exitX=-0.007349046610169492;exitY=0.9563580421845271;entryX=0.4540822298020331;entryY=0;" edge="1" parent="1" source="5" target="7"><mxGeometry relative="1" as="geometry"><Array as="points"><mxPoint x="42" y="299"/></Array></mxGeometry></mxCell><mxCell id="14" value="" style="curved=1;startArrow=none;;exitX=0.6347718950642055;exitY=0;entryX=0.2176355049435029;entryY=1;" edge="1" parent="1" source="7" target="5"><mxGeometry relative="1" as="geometry"><Array as="points"><mxPoint x="82" y="299"/></Array></mxGeometry></mxCell><mxCell id="15" value="" style="curved=1;startArrow=none;;exitX=0.9877515889830508;exitY=0.8872371123396176;entryX=0.5006846005154639;entryY=0;" edge="1" parent="1" source="5" target="8"><mxGeometry relative="1" as="geometry"><Array as="points"><mxPoint x="216" y="299"/></Array></mxGeometry></mxCell><mxCell id="16" value="" style="curved=1;startArrow=none;;exitX=0.5006846005154639;exitY=1;entryX=0.9817243303571429;entryY=0.11742866482977579;" edge="1" parent="1" source="8" target="6"><mxGeometry relative="1" as="geometry"><Array as="points"><mxPoint x="216" y="383"/></Array></mxGeometry></mxCell></root></mxGraphModel>